HIERARCHY
ROOT root
{
	OFFSET	0	13.1	24.9
	CHANNELS 6  Xposition Yposition Zposition Xrotation Yrotation Zrotation
	JOINT spine_1
	{
		OFFSET	0	9.99999	0
		CHANNELS 3  Xrotation Yrotation Zrotation
		JOINT spine_2
		{
			OFFSET	0	112	-10
			CHANNELS 3  Xrotation Yrotation Zrotation
			JOINT spine_3
			{
				OFFSET	0	206.5	19.3
				CHANNELS 3  Xrotation Yrotation Zrotation
				JOINT spine_4
				{
					OFFSET	0	110.4	14.6
					CHANNELS 3  Xrotation Yrotation Zrotation
					JOINT neck_1
					{
						OFFSET	0	71.8	-50.3
						CHANNELS 3  Xrotation Yrotation Zrotation
						JOINT neck_2
						{
							OFFSET	0	86.2	-25.8
							CHANNELS 3  Xrotation Yrotation Zrotation
							JOINT head_ee
							{
								OFFSET	0	179.8	-8.7
								CHANNELS 3  Xrotation Yrotation Zrotation
								End Site
								{
									OFFSET	1	0	0
								}
							}
						}
					}
					JOINT left_clavicle
					{
						OFFSET	-43.2	22.4	-70.8
						CHANNELS 3  Xrotation Yrotation Zrotation
						JOINT left_shoulder
						{
							OFFSET	-93.9	-5.79999	48.7
							CHANNELS 3  Xrotation Yrotation Zrotation
							JOINT left_elbow
							{
								OFFSET	-291.4	-30.8	15.2
								CHANNELS 3  Xrotation Yrotation Zrotation
								JOINT left_lowarm_twist
								{
									OFFSET	-110.7	-3.89999	13.6
									CHANNELS 3  Xrotation Yrotation Zrotation
									JOINT left_hand
									{
										OFFSET	-110.7	-3.89999	13.6
										CHANNELS 3  Xrotation Yrotation Zrotation
										JOINT left_ee
										{
											OFFSET	-80.8	-5.10001	12.1
											CHANNELS 3  Xrotation Yrotation Zrotation
											End Site
											{
												OFFSET	1	0	0
											}
										}
									}
								}
							}
						}
					}
					JOINT right_clavicle
					{
						OFFSET	43.2	22.4	-70.8
						CHANNELS 3  Xrotation Yrotation Zrotation
						JOINT right_shoulder
						{
							OFFSET	93.9	-5.79999	48.7
							CHANNELS 3  Xrotation Yrotation Zrotation
							JOINT right_elbow
							{
								OFFSET	291.4	-30.8	15.2
								CHANNELS 3  Xrotation Yrotation Zrotation
								JOINT right_lowarm_twist
								{
									OFFSET	110.7	-3.89999	13.6
									CHANNELS 3  Xrotation Yrotation Zrotation
									JOINT right_hand
									{
										OFFSET	110.7	-3.89999	13.6
										CHANNELS 3  Xrotation Yrotation Zrotation
										JOINT right_ee
										{
											OFFSET	80.8	-5.10001	12.1
											CHANNELS 3  Xrotation Yrotation Zrotation
											End Site
											{
												OFFSET	1	0	0
											}
										}
									}
								}
							}
						}
					}
				}
			}
		}
	}
	JOINT left_hip
	{
		OFFSET	-82.8	-127.5	0.300001
		CHANNELS 3  Xrotation Yrotation Zrotation
		JOINT left_knee
		{
			OFFSET	-28.2	-396.7	2.2
			CHANNELS 3  Xrotation Yrotation Zrotation
			JOINT left_ankle
			{
				OFFSET	-11.7	-411.3	35.4
				CHANNELS 3  Xrotation Yrotation Zrotation
				JOINT left_toes
				{
					OFFSET	0	-60	-88.6
					CHANNELS 3  Xrotation Yrotation Zrotation
					JOINT left_foot_ee
					{
						OFFSET	-22.5	-16.5	-42.2
						CHANNELS 3  Xrotation Yrotation Zrotation
						End Site
						{
							OFFSET	1	0	0
						}
					}
				}
			}
		}
	}
	JOINT right_hip
	{
		OFFSET	82.8	-127.5	0.300001
		CHANNELS 3  Xrotation Yrotation Zrotation
		JOINT right_knee
		{
			OFFSET	28.2	-396.7	2.2
			CHANNELS 3  Xrotation Yrotation Zrotation
			JOINT right_ankle
			{
				OFFSET	11.7	-411.3	35.4
				CHANNELS 3  Xrotation Yrotation Zrotation
				JOINT right_toes
				{
					OFFSET	0	-60	-88.6
					CHANNELS 3  Xrotation Yrotation Zrotation
					JOINT right_foot_ee
					{
						OFFSET	22.5	-16.5	-42.2
						CHANNELS 3  Xrotation Yrotation Zrotation
						End Site
						{
							OFFSET	1	0	0
						}
					}
				}
			}
		}
	}
}
MOTION
Frames: 6
Frame Time: 0.02
3177.02 653.055 -1669.29 -10.6852847059 21.7587245024 2.81626887605 3.91916 0.578974 3.00136 3.92409 0.386907 3.03208 3.94182 -0.0488838 3.05625 3.92905 0.434182 3.02567 -10.1598 -1.87346 -10.537 -9.84691 3.59422 -10.7471 -0.0 0.0 -0.0 1.60538 21.5754 4.79316 -26.5644 -20.3169 60.6366 0.471804 -13.1551 0.0544026 0.839554 0.0288237 -0.10335 0.838368 20.6981 13.3896 -0.0 0.0 -0.0 10.6434 16.1643 -21.0776 -9.6528 17.5358 -56.6567 2.3692 49.5599 -1.09384 75.0425 3.27971 8.30599 -0.0158659 -6.46903 -2.59521 0.0 0.0 0.0 35.4473 -4.44061 -3.48739 -0.5292 0.0214288 0.0783842 -17.347 18.1987 2.64065 19.0264 -0.0 -0.0 -0.0 0.0 -0.0 3.64587 11.6997 3.07233 -21.3178 -0.27765 -3.24075 25.1982 -2.72272 3.36144 32.4659 -0.0 -0.0 0.0 0.0 0.0 
3153.17519304 652.18 -1679.12157882 -11.5554553495 21.8819114342 2.5870804712 3.95391 0.504249 2.88785 3.95849 0.319546 2.91406 3.97214 -0.0972764 2.9299 3.96035 0.366467 2.90853 -9.80116 -1.09257 -7.8184 -9.62862 3.26634 -7.91074 -0.0 0.0 -0.0 1.78529 22.2237 5.0883 -25.1673 -20.2176 60.9671 0.613379 -16.9015 0.0911323 0.79355 0.0272835 -0.0976763 0.760352 20.8289 12.9589 -0.0 0.0 -0.0 10.9469 17.0359 -21.7175 -10.6526 16.511 -56.3933 2.2841 48.523 -1.02957 74.1395 3.18083 8.24551 -0.286401 -6.61237 -0.88991 0.0 0.0 0.0 37.175 -3.32882 -1.33918 -2.91924 0.10914 0.434668 -21.9189 22.7104 3.39807 21.2198 -0.0 -0.0 -0.0 0.0 -0.0 2.13602 12.8616 4.67412 -19.6631 -0.299495 -2.98781 25.2188 -6.66739 3.35603 33.8195 -0.0 -0.0 0.0 0.0 0.0 
3153.10241807 652.18 -1678.94318785 -11.5903055731 22.3012043046 2.67974497444 3.95391 0.504249 2.88785 3.95849 0.319546 2.91406 3.97214 -0.0972764 2.9299 3.96035 0.366467 2.90853 -9.80116 -1.09257 -7.8184 -9.62862 3.26634 -7.91074 -0.0 0.0 -0.0 1.78529 22.2237 5.0883 -25.1673 -20.2176 60.9671 0.613379 -16.9015 0.0911323 0.79355 0.0272835 -0.0976763 0.760352 20.8289 12.9589 -0.0 0.0 -0.0 10.9469 17.0359 -21.7175 -10.6526 16.511 -56.3933 2.2841 48.523 -1.02957 74.1395 3.18083 8.24551 -0.286401 -6.61237 -0.88991 0.0 0.0 0.0 37.175 -3.32882 -1.33918 -2.91924 0.10914 0.434668 -21.9189 22.7104 3.39807 21.2198 -0.0 -0.0 -0.0 0.0 -0.0 2.13602 12.8616 4.67412 -19.6631 -0.299495 -2.98781 25.2188 -6.66739 3.35603 33.8195 -0.0 -0.0 0.0 0.0 0.0 
3131.53381608 653.351 -1701.45541759 -9.77302688583 21.7054984514 1.65524344064 3.85985 0.661769 2.73992 3.86389 0.486148 2.77644 3.88529 0.0831114 2.81742 3.8746 0.526856 2.76901 -9.01965 -0.403115 -6.19141 -8.91065 3.53089 -6.18325 -0.0 0.0 -0.0 1.9525 22.3017 5.32816 -24.7004 -20.4714 60.6511 0.615297 -16.9514 0.0916906 0.311963 0.0108872 -0.0383544 -0.0881265 20.5276 7.74575 -0.0 0.0 -0.0 10.742 19.4328 -21.1108 -13.2883 17.2634 -57.1163 2.02565 45.0935 -0.841062 73.3728 3.09765 8.19296 -0.173384 -5.5791 -1.1952 0.0 0.0 0.0 37.0109 -3.16599 -0.980776 -10.4518 0.287249 1.57607 -21.6275 29.0633 3.46994 25.2421 -0.0 -0.0 -0.0 0.0 -0.0 2.68582 12.1761 5.45118 -24.8381 -0.206928 -3.77625 20.7196 -9.77482 2.82267 34.4243 -0.0 -0.0 0.0 0.0 0.0 
3107.97981938 659.807 -1717.97604265 -9.63632523696 20.1161693876 1.3362432065 3.95207 0.390299 2.55506 3.95568 0.226978 2.5747 3.96383 -0.141184 2.58082 3.95464 0.268042 2.57075 -9.04496 0.521491 -4.20538 -8.99561 3.88541 -4.01229 -0.0 0.0 -0.0 2.26363 22.1844 5.76106 -23.9811 -19.9965 60.85 0.603479 -16.6439 0.0882751 0.863925 0.0296377 -0.106356 -0.336027 19.8742 6.01073 -0.0 0.0 -0.0 10.9797 20.679 -21.5587 -14.8613 16.868 -57.2387 1.84153 42.3682 -0.713748 72.4119 2.99441 8.12553 0.0479532 -3.34333 -1.71933 0.0 0.0 0.0 36.6606 -3.2982 -0.798744 -14.6253 0.320932 2.21541 -23.2884 29.4486 3.74711 27.8796 -0.0 -0.0 -0.0 0.0 -0.0 1.19688 12.9367 6.80374 -24.4028 -0.217454 -3.71028 16.2508 -9.53576 2.25707 34.5996 -0.0 -0.0 0.0 0.0 0.0 
3092.65640901 660.212 -1737.77277807 -9.20510313914 20.2873018376 1.40697508722 3.95756 0.306055 2.21731 3.96028 0.164377 2.23228 3.96514 -0.154462 2.23298 3.95823 0.200045 2.22936 -8.95752 1.20489 -2.65567 -8.93919 4.09718 -2.33201 -0.0 0.0 -0.0 2.31756 22.5195 5.85175 -23.0373 -20.1455 60.5813 0.666835 -18.2801 0.107289 1.0456 0.0356654 -0.128777 -0.736429 19.4979 3.46522 -0.0 0.0 -0.0 11.0028 20.1729 -21.6484 -16.2833 16.6223 -57.6887 1.67075 39.6092 -0.601694 71.737 2.92257 8.07714 0.10855 -2.38993 -1.72385 0.0 0.0 0.0 35.5711 -2.82395 -0.42329 -17.1503 0.318679 2.60277 -24.4724 32.1561 4.01459 29.9018 -0.0 -0.0 -0.0 0.0 -0.0 2.16626 13.5507 6.73151 -27.8393 -0.120742 -4.22872 13.7834 -12.1356 1.93816 35.0651 -0.0 -0.0 0.0 0.0 0.0 
